<?xml version="1.0"?>
<svg xmlns="http://www.w3.org/2000/svg" xmlns:xlink="http://www.w3.org/1999/xlink" xmlns:svgjs="http://svgjs.com/svgjs" version="1.1" width="512" height="512" x="0" y="0" viewBox="0 0 128 128" style="enable-background:new 0 0 512 512" xml:space="preserve" class=""><g><g xmlns="http://www.w3.org/2000/svg"><path d="m107.188 97.129a1.75 1.75 0 0 0 2.317-.873 19.552 19.552 0 0 0 1.745-8.116 1.75 1.75 0 1 0 -3.5 0 16.056 16.056 0 0 1 -1.435 6.673 1.751 1.751 0 0 0 .873 2.316z" fill="#ebc41a" data-original="#000000" style="" class=""/><path d="m121.426 61.808a4.694 4.694 0 0 0 -4.045-.867c-2.928.726-6.318 1.379-10.062 1.956a14.127 14.127 0 0 0 -14.099-13.707 13.97 13.97 0 0 0 -9.38 3.574 13.918 13.918 0 0 0 -8.459.378 13.947 13.947 0 0 0 -7.541-2.192 14.094 14.094 0 0 0 -9.79 3.959 7.727 7.727 0 0 0 -9.45 3.719 14.2 14.2 0 0 0 -11.183 6.142 172.746 172.746 0 0 1 -26.8-3.829 4.748 4.748 0 0 0 -2.27 9.221c.771.189 1.575.374 2.4.554v17.424a25.792 25.792 0 0 0 20.653 25.241l2.635 8.63a1.75 1.75 0 0 0 1.674 1.239h6a1.751 1.751 0 0 0 1.75-1.75v-7.61h41.081v7.61a1.75 1.75 0 0 0 1.75 1.75h6a1.75 1.75 0 0 0 1.674-1.239l2.636-8.63a25.793 25.793 0 0 0 20.65-25.241v-17.423c.826-.18 1.63-.365 2.4-.555a4.753 4.753 0 0 0 1.774-8.354zm-72.356.312c.116 0 .229.008.343.014l.263.014a1.774 1.774 0 0 0 1.742-1.219 4.229 4.229 0 0 1 6.164-2.4 1.753 1.753 0 0 0 2.2-.373 10.618 10.618 0 0 1 8.058-3.706 10.483 10.483 0 0 1 6.288 2.076 1.753 1.753 0 0 0 1.767.187 10.446 10.446 0 0 1 7.834-.322 1.744 1.744 0 0 0 1.842-.438 10.525 10.525 0 0 1 7.649-3.263 10.633 10.633 0 0 1 10.62 10.62v.089a311.754 311.754 0 0 1 -39.84 2.351c-7.694 0-15.208-.238-22.25-.681a10.657 10.657 0 0 1 7.32-2.949zm-9.11 57.63h-2.955l-1.8-5.893q.643.033 1.294.033h3.46zm51.035 0h-2.955v-5.86h3.46q.651 0 1.294-.033zm22.755-31.61a22.282 22.282 0 0 1 -18.675 21.96c-.038 0-.074.014-.112.02a22.342 22.342 0 0 1 -3.463.271h-55a22.366 22.366 0 0 1 -3.436-.266c-.047-.008-.093-.021-.141-.025a22.284 22.284 0 0 1 -18.673-21.96v-16.721c12.923 2.421 30.93 3.831 49.75 3.831s36.837-1.409 49.75-3.829zm6-22.586a1.237 1.237 0 0 1 -.934 1.21c-12.691 3.122-33.183 4.986-54.816 4.986-21.617 0-42.109-1.864-54.816-4.987a1.253 1.253 0 0 1 -.453-2.2 1.22 1.22 0 0 1 .746-.263 1.27 1.27 0 0 1 .3.038c12.408 3.076 32.679 4.912 54.223 4.912s41.814-1.836 54.223-4.911a1.2 1.2 0 0 1 1.046.225 1.25 1.25 0 0 1 .481.989z" fill="#ebc41a" data-original="#000000" style="" class=""/><path d="m50.3 20.25a7.75 7.75 0 1 0 -7.75-7.75 7.759 7.759 0 0 0 7.75 7.75zm0-12a4.25 4.25 0 1 1 -4.25 4.25 4.255 4.255 0 0 1 4.25-4.25z" fill="#ebc41a" data-original="#000000" style="" class=""/><path d="m73.548 32.75a6.25 6.25 0 1 0 -6.248-6.25 6.257 6.257 0 0 0 6.248 6.25zm0-9a2.75 2.75 0 1 1 -2.748 2.75 2.753 2.753 0 0 1 2.748-2.75z" fill="#ebc41a" data-original="#000000" style="" class=""/><path d="m48.548 39.308a4.75 4.75 0 1 0 4.75-4.75 4.756 4.756 0 0 0 -4.75 4.75zm6 0a1.25 1.25 0 1 1 -1.25-1.25 1.251 1.251 0 0 1 1.25 1.25z" fill="#ebc41a" data-original="#000000" style="" class=""/></g></g></svg>
