<?xml version="1.0"?>
<svg xmlns="http://www.w3.org/2000/svg" xmlns:xlink="http://www.w3.org/1999/xlink" xmlns:svgjs="http://svgjs.com/svgjs" version="1.1" width="512" height="512" x="0" y="0" viewBox="0 0 512 512" style="enable-background:new 0 0 512 512" xml:space="preserve" class=""><g>
<g xmlns="http://www.w3.org/2000/svg">
	<g>
		<path d="M393.57,494.93c-1.86-1.86-4.44-2.93-7.07-2.93s-5.21,1.07-7.07,2.93c-1.86,1.86-2.93,4.44-2.93,7.07s1.07,5.21,2.93,7.07    c1.86,1.86,4.44,2.93,7.07,2.93s5.21-1.07,7.07-2.93c1.86-1.86,2.93-4.44,2.93-7.07S395.43,496.79,393.57,494.93z" fill="#ffffff" data-original="#000000" style="" class=""/>
	</g>
</g>
<g xmlns="http://www.w3.org/2000/svg">
	<g>
		<path d="M218,203c-25.916,0-47,21.084-47,47s21.084,47,47,47s47-21.084,47-47S243.916,203,218,203z M218,277    c-14.888,0-27-12.112-27-27s12.112-27,27-27s27,12.112,27,27S232.888,277,218,277z" fill="#ffffff" data-original="#000000" style="" class=""/>
	</g>
</g>
<g xmlns="http://www.w3.org/2000/svg">
	<g>
		<path d="M182.57,78.6c-1.86-1.86-4.43-2.93-7.07-2.93c-2.63,0-5.21,1.07-7.07,2.93c-1.86,1.86-2.93,4.44-2.93,7.07    s1.07,5.21,2.93,7.07s4.44,2.93,7.07,2.93c2.64,0,5.21-1.07,7.07-2.93c1.87-1.86,2.93-4.44,2.93-7.07S184.44,80.46,182.57,78.6z" fill="#ffffff" data-original="#000000" style="" class=""/>
	</g>
</g>
<g xmlns="http://www.w3.org/2000/svg">
	<g>
		<path d="M502,436h-25.18c-4.206,0-8.118-2.266-10.21-5.914l-69.741-121.573C382.534,283.524,355.732,268,326.922,268H316V166    c0-1.719-0.443-3.41-1.287-4.908l-87.873-156C225.068,1.946,221.737,0,218.127,0c-3.611,0-6.941,1.946-8.713,5.092l-23.227,41.235    c-2.71,4.812-1.007,10.91,3.805,13.621c4.813,2.711,10.911,1.007,13.621-3.805l14.514-25.767L288.89,156H147.364l14.614-25.944    c2.71-4.812,1.007-10.91-3.805-13.621c-4.81-2.709-10.91-1.006-13.621,3.805l-22.045,39.137C120.947,161.142,120,163.46,120,166    v102H73c-31.094,0-56.437,25.032-56.975,56H10c-5.523,0-10,4.477-10,10s4.477,10,10,10h6v148h-6c-5.523,0-10,4.477-10,10    s4.477,10,10,10h332c5.523,0,10-4.477,10-10s-4.477-10-10-10h-26V344.094c8.919,0.708,17.037,5.781,21.537,13.609l67.496,117.407    c13.081,22.755,37.512,36.89,63.759,36.89H502c5.523,0,10-4.477,10-10v-56C512,440.477,507.523,436,502,436z M120,492H36v-36h84    V492z M120,436H36v-36h84V436z M120,380H36v-36h84V380z M120,324H36.025c0.534-19.94,16.909-36,36.975-36h47V324z M248,492h-60    v-54c0-16.542,13.458-30,30-30s30,13.458,30,30V492z M296,492h-28v-54c0-27.57-22.43-50-50-50s-50,22.43-50,50v54h-28V344h156V492    z M296,278v46H140V175.95c0.329,0.033,0.662,0.05,1,0.05h155V278z M492,492h-23.208c-19.109,0-36.896-10.292-46.42-26.858    l-67.496-117.407c-8.059-14.019-22.812-22.952-38.876-23.686V288h10.922c21.664,0,41.818,11.673,52.598,30.465l69.741,121.572    C454.909,449.884,465.469,456,476.82,456H492V492z" fill="#ffffff" data-original="#000000" style="" class=""/>
	</g>
</g>
<g xmlns="http://www.w3.org/2000/svg">
	<g>
		<path d="M468.156,27.58C458.943,10.834,441.044,0,421.616,0c-19.427,0-37.325,10.834-46.539,27.579    c-24.4,1.333-43.844,21.645-43.844,46.421c0,5.523,4.477,10,10,10s10-4.477,10-10c0-14.607,11.841-26.491,26.396-26.491    c0.872,0,1.797,0.048,2.75,0.144c4.5,0.458,8.731-2.165,10.342-6.383C395.579,28.548,407.994,20,421.616,20    c13.623,0,26.038,8.548,30.895,21.27c1.61,4.219,5.847,6.842,10.342,6.384c0.953-0.096,1.877-0.144,2.748-0.144    c11.033,0,20.507,6.826,24.447,16.491h-90.112c-5.523,0-10,4.477-10,10s4.477,10,10,10H502c5.523,0,10-4.477,10-10    C512,49.225,492.558,28.914,468.156,27.58z" fill="#ffffff" data-original="#000000" style="" class=""/>
	</g>
</g>
<g xmlns="http://www.w3.org/2000/svg">
</g>
<g xmlns="http://www.w3.org/2000/svg">
</g>
<g xmlns="http://www.w3.org/2000/svg">
</g>
<g xmlns="http://www.w3.org/2000/svg">
</g>
<g xmlns="http://www.w3.org/2000/svg">
</g>
<g xmlns="http://www.w3.org/2000/svg">
</g>
<g xmlns="http://www.w3.org/2000/svg">
</g>
<g xmlns="http://www.w3.org/2000/svg">
</g>
<g xmlns="http://www.w3.org/2000/svg">
</g>
<g xmlns="http://www.w3.org/2000/svg">
</g>
<g xmlns="http://www.w3.org/2000/svg">
</g>
<g xmlns="http://www.w3.org/2000/svg">
</g>
<g xmlns="http://www.w3.org/2000/svg">
</g>
<g xmlns="http://www.w3.org/2000/svg">
</g>
<g xmlns="http://www.w3.org/2000/svg">
</g>
</g></svg>
